<svg width="24" height="24" viewBox="0 0 24 24" fill="none" xmlns="http://www.w3.org/2000/svg">
															<path fill-rule="evenodd" clip-rule="evenodd" d="M12 20C16.4183 20 20 16.4183 20 12C20 7.58172 16.4183 4 12 4C7.58172 4 4 7.58172 4 12C4 16.4183 7.58172 20 12 20ZM12 24C18.6274 24 24 18.6274 24 12C24 5.37258 18.6274 0 12 0C5.37258 0 0 5.37258 0 12C0 18.6274 5.37258 24 12 24Z" fill="#C8C8C8"></path>
															<path fill-rule="evenodd" clip-rule="evenodd" d="M15.9999 0.686289C14.7205 0.233951 13.3682 0 11.9999 0V3.93696C13.4442 3.93696 14.8619 4.32489 16.105 5.06021C17.3481 5.79553 18.3708 6.85124 19.0664 8.117C19.7619 9.38277 20.1047 10.8121 20.0589 12.2557C20.0131 13.6992 19.5804 15.104 18.806 16.3231C18.0317 17.5422 16.9441 18.531 15.6569 19.186C14.3697 19.8411 12.9302 20.1384 11.4888 20.0468C10.0475 19.9553 8.65715 19.4783 7.46319 18.6656C6.26922 17.853 5.31544 16.7346 4.70154 15.4273L1.13794 17.1007C1.71955 18.3393 2.50612 19.4639 3.45939 20.4297C4.00364 20.9811 4.60223 21.4807 5.24803 21.9203C7.02498 23.1297 9.09416 23.8396 11.2393 23.9759C13.3845 24.1121 15.5268 23.6697 17.4425 22.6948C19.3582 21.7199 20.9768 20.2483 22.1293 18.4339C23.2818 16.6195 23.9257 14.5289 23.9939 12.3805C24.062 10.2321 23.5519 8.10484 22.5167 6.22104C21.4816 4.33724 19.9595 2.76605 18.1094 1.6717C17.4371 1.27398 16.7304 0.944541 15.9999 0.686289Z" fill="#FB3E7A"></path>
														</svg>